<?xml version="1.0" encoding="utf-8"?>
<!-- Generator: Adobe Illustrator 26.0.0, SVG Export Plug-In . SVG Version: 6.00 Build 0)  -->
<svg version="1.1" id="Layer_1" xmlns="http://www.w3.org/2000/svg" xmlns:xlink="http://www.w3.org/1999/xlink" x="0px" y="0px"
	 viewBox="0 0 595.28 841.89" style="enable-background:new 0 0 595.28 841.89;" xml:space="preserve">
<style type="text/css">
	
		.st0{clip-path:url(#SVGID_00000133527105571527444030000004217460828216568966_);fill:url(#SVGID_00000083770498725589887380000015018989291139315367_);}
	.st1{fill:#634C9F;}
</style>
<g>
	<defs>
		<path id="SVGID_1_" d="M267.91,457.04c-24.16-11.29-115.97-105.73-74.35-157.45c17.15-21.31,48.79-23.5,69.59-5.74
			c5.23,4.47,11.23,8.85,16.96,10.1c7.39,1.61,19.36,1.13,33.28-7.81c-14.12,5.69-27.48,2.68-26.15-0.57
			c1.58-4.02,20.84-14.52,47.03-6.57c63.19,19.2,10.29,117.24-22.09,127.93c-5.28-42.19-14.58-60.8-35.57-42.45
			c-24.87,21.74-9.49,68.4-5.72,79.94C271.46,456.2,269.61,457.83,267.91,457.04z"/>
	</defs>
	
		<linearGradient id="SVGID_00000183249642637167572690000009849286484694728102_" gradientUnits="userSpaceOnUse" x1="182.8742" y1="369.575" x2="363.8253" y2="369.575">
		<stop  offset="0.4197" style="stop-color:#9C7BB8"/>
		<stop  offset="1" style="stop-color:#BE9FCB"/>
	</linearGradient>
	<use xlink:href="#SVGID_1_"  style="overflow:visible;fill:url(#SVGID_00000183249642637167572690000009849286484694728102_);"/>
	<clipPath id="SVGID_00000053528073085880656140000008781631591344326579_">
		<use xlink:href="#SVGID_1_"  style="overflow:visible;"/>
	</clipPath>
	
		<linearGradient id="SVGID_00000108309576056804333790000008881805292455729322_" gradientUnits="userSpaceOnUse" x1="118.6348" y1="367.0606" x2="313.3807" y2="367.0606">
		<stop  offset="0.4197" style="stop-color:#9C7BB8"/>
		<stop  offset="1" style="stop-color:#BE9FCB"/>
	</linearGradient>
	
		<path style="clip-path:url(#SVGID_00000053528073085880656140000008781631591344326579_);fill:url(#SVGID_00000108309576056804333790000008881805292455729322_);" d="
		M271.83,455.92c0.05-0.22-45.56-114.74,41.55-159.79c-45.28,16.75-19.56-10.9-28.97-20.22c-9.41-9.32-165.78,8.86-165.78,8.86
		l54.34,150.34C172.95,435.13,267.98,474.43,271.83,455.92z"/>
</g>
<path class="st1" d="M276.6,374.48c-0.03-0.34,19.29-16.84,31.52-10.76c12.2,6.06,18.33,44.08,4.05,53.21
	c-10.98,7.02-17.64,2.63-20.99-1.41c-1.48-1.79-2.55-3.89-3.26-6.1L276.6,374.48L276.6,374.48z"/>
</svg>
