<?xml version="1.0" standalone="no"?>
<!DOCTYPE svg PUBLIC "-//W3C//DTD SVG 20010904//EN"
 "http://www.w3.org/TR/2001/REC-SVG-20010904/DTD/svg10.dtd">
<svg version="1.0" xmlns="http://www.w3.org/2000/svg"
 width="1177.000000pt" height="1125.000000pt" viewBox="0 0 1177.000000 1125.000000"
 preserveAspectRatio="xMidYMid meet">

<g transform="translate(0.000000,1125.000000) scale(0.100000,-0.100000)"
fill="#000000" stroke="none">
<path d="M7385 5884 c-310 -34 -672 -187 -1069 -453 -102 -69 -290 -214 -313
-242 -9 -11 49 -202 283 -924 391 -1208 391 -1209 429 -1292 49 -107 127 -213
220 -301 96 -90 180 -142 290 -179 73 -25 93 -27 230 -27 134 0 159 3 240 28
101 31 240 94 360 164 258 150 425 462 492 917 24 167 24 577 -1 760 -82 613
-282 1110 -546 1359 -90 84 -163 125 -283 160 -87 25 -243 39 -332 30z"/>
</g>
</svg>
